<?xml version="1.0" encoding="utf-8"?>
<!-- Generator: Adobe Illustrator 25.0.0, SVG Export Plug-In . SVG Version: 6.00 Build 0)  -->
<svg version="1.1" id="图层_1" xmlns="http://www.w3.org/2000/svg" xmlns:xlink="http://www.w3.org/1999/xlink" x="0px" y="0px"
	 viewBox="0 0 1024 1024" style="enable-background:new 0 0 1024 1024;" xml:space="preserve">
<style type="text/css">
	.st0{display:none;}
	.st1{display:inline;fill:#333333;}
	.st2{display:inline;}
	.st3{fill:#E5BBB5;}
	.st4{fill:#DDDDDC;}
	.st5{fill:none;}
	.st6{fill:#A6B9C1;}
	.st7{fill:#7D9BAA;}
	.st8{fill:#333333;}
	.st9{opacity:0.3;fill:#535C63;enable-background:new    ;}
	.st10{fill:none;stroke:#333333;stroke-width:2;stroke-linecap:round;stroke-linejoin:round;stroke-miterlimit:10;}
	.st11{fill:none;stroke:#333333;stroke-width:2;stroke-linejoin:round;stroke-miterlimit:10;}
	.st12{fill:#FBD3CA;}
	.st13{fill:#F3CAC2;}
	.st14{opacity:0.2;fill:#E1C7C4;enable-background:new    ;}
	.st15{opacity:0.3;fill:#535C63;}
	.st16{opacity:0.2;fill:#E1C7C4;}
</style>
<g id="图层_1_1_" class="st0">
</g>
<g id="图层_2_1_" class="st0">
	<g>
		<circle class="st1" cx="550.19" cy="788.04" r="9.53"/>
		<path class="st1" d="M851.06,795.09c0.08-0.87,0.1-1.7,0.01-2.58c-0.04-0.54,0.11-1.06,0-1.61l-11.97-59.83
			c-6.69-33.47-32.4-60.49-65.5-68.83L673,636.86l-28.29-46.7c11.6-20.45,18.88-42.8,18.88-65.27v-54.65c0-1.06-0.18-2.06-0.31-3.09
			c13.93-14.2,19.47-31.32,22.56-45.88c5.18-24.45,3.28-41.79-5.81-53.02c-2.1-2.6-5.22-5.36-9.33-7.66
			c11.8-15.4,19.3-30.11,19.3-58.82c0-25.69,4.52-70.58-50.13-109.3c-37.16-26.32-65.2-25.62-121.41-22.72
			c15.22-9.55,40.2-15.8,57.09-19.19c3.5-0.7,3.33-5.74-0.19-6.32c-209.61-34.72-205.06,67-205.06,67
			c-28.04,11.79-36.25,27.43-36.25,83.43c0,29.81,7.09,46.97,18.96,65.01c-4.99,2.43-8.48,5.66-10.86,8.59
			c-9.11,11.25-11.02,28.58-5.85,53c3.09,14.55,8.63,31.68,22.56,45.87c-0.13,1.02-0.31,2.03-0.31,3.09v54.65
			c0,25.33,6.16,48.77,18.08,69.95l-25.45,42.02l-100.61,25.38c-33.1,8.35-58.81,35.37-65.49,68.83l-12,60.01
			c-0.85,4.26,0.71,8.29,3.52,11.19c0.2,0.24,0.43,0.44,0.65,0.66c0.7,0.63,1.43,1.17,2.27,1.63c0.49,0.31,0.85,0.76,1.4,1
			c103.46,46.74,217.95,71.44,331.09,71.45c0.02,0,0.05,0.01,0.07,0.01s0.05-0.01,0.07-0.01c115.86-0.01,227.47-24.07,331.7-71.51
			c3.82-1.74,6.14-5.17,6.95-8.98C850.95,796.04,851,795.57,851.06,795.09z M814.17,736.06l10.03,50.17
			c-31.35,13.79-63.38,25.39-96,34.82c0-33.45,0-109.89,0-144.04l39.19,9.89C791.02,692.85,809.38,712.15,814.17,736.06z
			 M524.81,851.25v-96.87l55.74-65.73l31.58,49.61c2.93,4.6,8.04,7.35,13.42,7.35c0.68,0,1.38-0.04,2.07-0.14
			c5.77-0.77,10.68-4.68,12.75-10.09l31.78-72.53l5.21,1.31c0,124.37,0,118.98,0,169.92C627.63,844.84,576.66,850.43,524.81,851.25z
			 M352.05,662.87l31.78,72.54c2.07,5.41,7.01,9.33,12.81,10.07c0.67,0.09,1.34,0.13,2.01,0.13c5.39,0,10.52-2.76,13.42-7.36
			l31.57-49.6l55.74,65.73v96.85c-51.07-0.86-102.31-6.68-152.55-17.62c0-85.78,0-81.9,0-169.44L352.05,662.87z M512.1,730.07
			l-51.58-60.82c15.85,6.68,34.93,6.78,49.19,6.74h2.74c0.54,0,1.08,0,1.63,0c15.1,0,34.98-0.32,50.84-8.21L512.1,730.07z
			 M561.96,533.8c0,7.02-5.69,12.71-12.71,12.71h-7.63c-2.67,0-4.86-2.06-5.07-4.68c-0.34-4.33-3.08-8.03-7.43-8.03H493.1
			c-4.34,0-7.09,3.7-7.43,8.03c-0.21,2.62-2.4,4.68-5.07,4.68h-7.63c-7.02,0-12.71-5.69-12.71-12.71v-19.15
			c0-5.76,3.91-10.83,9.49-12.3c16.96-4.48,31.26-6.85,41.36-6.85s24.4,2.36,41.35,6.85c5.59,1.48,9.5,6.54,9.5,12.31L561.96,533.8
			L561.96,533.8z M650.54,648.85l-26.58,60.66l-27.22-42.76l22.28-41.39c3.49-3.84,6.82-7.84,10.03-11.96L650.54,648.85z
			 M378.95,395.93c1.77,2.53,5.77,1.27,5.77-1.82v-34.32c0-23.5,10.79-36.61,17.12-42.28c0.84-0.75,1.22-1.9,1.01-3.01
			c-0.22-1.11-1-2.02-2.07-2.4l-7.02-2.5c-0.96-0.34-2.03-0.72-3.11-1.11l-20.35-7.25c0,0,0.47-0.11,0.89-0.2
			c0.26-0.06,0.72-0.15,1.1-0.23c0.47-0.1,1.08-0.23,1.73-0.36c0.59-0.12,1.28-0.26,2-0.4c0.83-0.16,1.83-0.34,2.82-0.53
			c0.8-0.15,1.56-0.29,2.45-0.45c1.52-0.27,3.26-0.55,5.04-0.83c0.69-0.11,1.27-0.21,1.99-0.32c0.48-0.07,0.99-0.14,1.49-0.21
			c1.85-0.27,3.8-0.53,5.84-0.79c0.73-0.09,1.44-0.18,2.19-0.27c2.65-0.32,5.39-0.62,8.28-0.88c0.03,0,0.06-0.01,0.09-0.01
			c2.82-0.25,5.75-0.46,8.75-0.64c0.86-0.05,1.71-0.09,2.58-0.13c2.45-0.12,4.93-0.2,7.46-0.25c0.75-0.01,1.48-0.04,2.23-0.05
			c3.16-0.03,6.36,0.01,9.58,0.12c0.73,0.03,1.46,0.08,2.2,0.11c2.6,0.12,5.19,0.3,7.79,0.54c0.92,0.08,1.84,0.17,2.76,0.27
			c3.27,0.35,6.54,0.77,9.75,1.34c24.92,4.41,43.09,6.44,54.59,8.3c0.91,0.15,1.81-0.34,2.18-1.18c0.38-0.85,0.13-1.84-0.59-2.41
			c-14.01-11.18-31.4-17.98-58.44-30.63c30.31,4.34,77.58,15,103.54,40.69c11.86,11.74,28.97,20.39,46.66,27.9
			c0.82,0.35,1.78,0.08,2.3-0.65c0.52-0.73,0.46-1.73-0.14-2.39c-6.7-7.35-17.77-20.08-26.72-33.23
			c61.22,7.43,54.95,16.61,54.29,90.6c-0.03,3.09,3.95,4.43,5.75,1.91c3.82-5.36,7.5-10.09,11.02-14.48c4.45,0.54,6,2.15,6.5,2.77
			c1.78,2.18,5.39,9.65,0.7,31.74c-4.06,19.14-10.85,31.02-22.74,39.3v-16.33c0-3.61-5.05-4.43-6.19-1.01l-16.47,49.42
			c-1.79,5.36-5.31,9.98-10.02,13.12l-18.33,12.22c-0.84-16.46-12.15-30.7-28.26-34.96c-19.32-5.1-35.42-7.69-47.85-7.69
			c-12.43,0-28.53,2.59-47.86,7.69c-16.1,4.26-27.41,18.49-28.25,34.96l-18.33-12.22c-4.7-3.14-8.23-7.75-10.02-13.12l-16.47-49.42
			c-1.14-3.42-6.19-2.6-6.19,1.01v16.38c-11.92-8.29-18.73-20.18-22.8-39.35c-4.68-22.04-1.06-29.52,0.72-31.71
			c0.52-0.63,2.1-2.27,6.65-2.81C371.85,385.97,375.31,390.72,378.95,395.93z M392.53,617.69c5.62,6.71,11.9,13.13,18.87,19.25
			l16.05,29.8l-27.21,42.76l-26.58-60.66L392.53,617.69z M256.8,686.89l39.19-9.89c0,50.43,0,92.95,0,143.57
			c-32.74-9.44-64.83-20.95-95.95-34.55l10-49.97C214.81,712.15,233.16,692.85,256.8,686.89z"/>
		<circle class="st1" cx="445.83" cy="423.11" r="16.06"/>
		<circle class="st1" cx="567.85" cy="423.11" r="16.06"/>
	</g>
	<g class="st2">
		<g>
			<rect x="409.26" y="528.95" class="st3" width="206.95" height="244.6"/>
			<path class="st4" d="M512.73,877.02c118.55,0,230.98-25.95,332.21-72.16l-12.02-60.1c-5.95-29.75-28.69-53.3-58.21-60.3
				l-106.59-27.63l-38.99-64.37l-42,89.21l-74.26,78.99l-74.55-74.83l-42-89.21L357.34,661l-106.59,27.63
				c-29.52,6.99-52.25,30.55-58.2,60.3l-11.26,56.28C282.33,851.19,394.48,877.02,512.73,877.02z"/>
			<g>
				<rect x="251.88" y="773.55" class="st5" width="49.99" height="51.74"/>
				<rect x="351.86" y="773.55" class="st5" width="49.99" height="51.74"/>
				<rect x="626.8" y="773.55" class="st5" width="49.99" height="51.74"/>
				<rect x="451.84" y="773.55" class="st5" width="124.97" height="51.74"/>
				<rect x="726.78" y="773.55" class="st5" width="49.99" height="51.74"/>
				<polygon class="st6" points="351.86,664.3 301.87,677.71 301.87,721.81 351.86,721.81 				"/>
				<path class="st6" d="M301.87,846.14c1.15,0.34,2.31,0.63,3.46,0.96c-1.16-0.34-2.3-0.75-3.46-1.09V846.14z"/>
				<rect x="301.87" y="773.55" class="st6" width="49.99" height="51.74"/>
				<path class="st6" d="M351.86,859.13v-0.22c-2.95-0.66-5.93-1.22-8.86-1.92C345.95,857.69,348.88,858.47,351.86,859.13z"/>
				<path class="st6" d="M336.14,855.34c-9.17-2.26-18.29-4.67-27.33-7.26C317.85,850.67,326.97,853.08,336.14,855.34z"/>
				<path class="st6" d="M251.88,691.66c-14.99,5.89-27.62,16.53-36.21,30.15h36.21V691.66z"/>
				<path class="st6" d="M251.88,829.29v-0.12c-1.46-0.54-2.93-1.05-4.38-1.6C248.96,828.13,250.41,828.74,251.88,829.29z"/>
				<path class="st6" d="M251.88,773.55h-49.99v35.09c13.05,5.97,26.36,11.43,39.78,16.65h10.21V773.55z"/>
				<rect x="401.85" y="773.55" class="st6" width="49.99" height="51.74"/>
				<polygon class="st6" points="451.84,695.61 445.76,689.29 414.34,721.81 451.84,721.81 				"/>
				<rect x="576.81" y="773.55" class="st6" width="49.99" height="51.74"/>
				<polygon class="st6" points="581.03,687.38 576.81,692.03 576.81,721.81 614.3,721.81 				"/>
				<path class="st6" d="M776.77,825.28h10.21c13.42-5.22,26.73-10.69,39.78-16.66v-35.08h-49.99V825.28z"/>
				<path class="st6" d="M776.77,829.29c1.58-0.59,3.12-1.25,4.7-1.84c-1.56,0.59-3.14,1.13-4.7,1.72V829.29z"/>
				<path class="st6" d="M776.77,687.5v34.31h38.5C806.72,706.23,793.22,693.96,776.77,687.5z"/>
				<path class="st6" d="M721.05,847.75c-9.5,2.74-19.08,5.26-28.72,7.63C701.97,853.01,711.55,850.48,721.05,847.75z"/>
				<path class="st6" d="M676.79,859.13c2.99-0.66,5.93-1.45,8.9-2.15c-2.95,0.7-5.94,1.27-8.9,1.93V859.13z"/>
				<path class="st6" d="M726.78,846.16v-0.15c-1.31,0.39-2.6,0.85-3.92,1.24C724.16,846.87,725.48,846.54,726.78,846.16z"/>
				<polygon class="st6" points="726.78,673.55 676.79,660.14 676.79,721.81 726.78,721.81 				"/>
				<rect x="676.79" y="773.55" class="st6" width="49.99" height="51.74"/>
				<polygon class="st6" points="401.85,773.55 401.85,734.74 414.34,721.81 351.86,721.81 351.86,773.55 				"/>
				<path class="st6" d="M815.27,721.81c3.87,7.05,6.83,14.72,8.42,22.95l3.06,15.85v-38.8H815.27z"/>
				<rect x="251.88" y="721.81" class="st6" width="49.99" height="51.74"/>
				<path class="st6" d="M215.66,721.81h-13.78v42.97l3.06-15.86C206.86,739.07,210.55,729.91,215.66,721.81z"/>
				<polygon class="st6" points="576.81,773.55 576.81,721.81 551.81,721.81 514.32,760.67 476.83,721.81 451.84,721.81 
					451.84,773.55 				"/>
				<rect x="726.78" y="721.81" class="st6" width="49.99" height="51.74"/>
				<polygon class="st6" points="626.8,773.55 676.79,773.55 676.79,721.81 614.3,721.81 626.8,734.74 				"/>
				<rect x="301.87" y="721.81" class="st7" width="49.99" height="51.74"/>
				<path class="st7" d="M251.88,721.81h-36.21c-5.12,8.1-8.81,17.26-10.71,27.11l-3.06,15.86v8.77h49.99v-51.74H251.88z"/>
				<polygon class="st7" points="401.85,773.55 451.84,773.55 451.84,721.81 414.34,721.81 401.85,734.74 				"/>
				<polygon class="st7" points="626.8,773.55 626.8,734.74 614.3,721.81 576.81,721.81 576.81,773.55 				"/>
				<path class="st7" d="M815.27,721.81h-38.5v51.74h49.99v-12.93l-3.06-15.85C822.1,736.53,819.14,728.86,815.27,721.81z"/>
				<rect x="676.79" y="721.81" class="st7" width="49.99" height="51.74"/>
				<path class="st6" d="M726.78,825.28v20.73c16.92-5.02,33.56-10.7,49.99-16.84v-3.88L726.78,825.28L726.78,825.28z"/>
				<path class="st6" d="M692.33,855.38c-2.21,0.54-4.42,1.08-6.64,1.6C687.91,856.45,690.12,855.92,692.33,855.38z"/>
				<path class="st6" d="M722.86,847.25c-0.6,0.17-1.21,0.33-1.81,0.5C721.65,847.58,722.26,847.42,722.86,847.25z"/>
				<path class="st6" d="M787.39,825.28h-0.41c-1.84,0.72-3.67,1.46-5.51,2.17C783.43,826.7,785.43,826.05,787.39,825.28z"/>
				<path class="st6" d="M343,856.99c-2.29-0.54-4.58-1.09-6.86-1.66C338.42,855.9,340.7,856.45,343,856.99z"/>
				<path class="st6" d="M241.24,825.28c2.06,0.81,4.18,1.5,6.25,2.29c-1.95-0.74-3.88-1.53-5.82-2.29H241.24z"/>
				<path class="st6" d="M308.81,848.08c-1.16-0.33-2.33-0.63-3.48-0.97C306.48,847.45,307.65,847.75,308.81,848.08z"/>
				<path class="st6" d="M251.88,825.28v3.89c16.43,6.15,33.07,11.82,49.99,16.84v-20.73L251.88,825.28L251.88,825.28z"/>
				<path class="st6" d="M626.8,825.28v43.02c-16.5,2.5-33.17,4.42-49.99,5.83v-48.85H451.84v48.85
					c-16.82-1.41-33.49-3.32-49.99-5.83v-43.03h-49.99v33.63c52.39,11.71,106.68,18.11,162.47,18.11s110.08-6.4,162.47-18.11v-33.63
					h-50V825.28z"/>
				<path class="st7" d="M301.87,825.28v20.73c1.16,0.35,2.3,0.75,3.46,1.09c1.15,0.34,2.32,0.64,3.48,0.97
					c9.04,2.59,18.16,5,27.33,7.26c2.28,0.56,4.57,1.12,6.86,1.66c2.94,0.69,5.91,1.26,8.86,1.92v-33.63L301.87,825.28
					L301.87,825.28z"/>
				<path class="st6" d="M241.67,825.28c1.94,0.76,3.87,1.54,5.82,2.29c1.45,0.55,2.93,1.06,4.38,1.6v-3.89L241.67,825.28
					L241.67,825.28z"/>
				<path class="st7" d="M401.85,868.31c16.5,2.5,33.17,4.42,49.99,5.83v-48.85h-49.99V868.31z"/>
				<path class="st7" d="M576.81,874.13c16.82-1.4,33.49-3.32,49.99-5.83v-43.02h-49.99V874.13z"/>
				<path class="st6" d="M776.77,829.17c1.56-0.58,3.14-1.12,4.7-1.72c1.85-0.7,3.67-1.45,5.51-2.17h-10.21V829.17z"/>
				<path class="st7" d="M676.79,825.28v33.63c2.96-0.66,5.96-1.23,8.9-1.93c2.22-0.52,4.43-1.06,6.64-1.6
					c9.64-2.37,19.22-4.89,28.72-7.63c0.6-0.17,1.21-0.33,1.81-0.5c1.32-0.38,2.6-0.84,3.92-1.24v-20.73L676.79,825.28
					L676.79,825.28z"/>
			</g>
			<circle class="st8" cx="551.49" cy="799.41" r="9.7"/>
			<g>
				<path class="st9" d="M616.22,747.65l-0.01,0.02C616.19,747.78,616.2,747.74,616.22,747.65z"/>
			</g>
			<g>
				<path class="st10" d="M357.34,656.83l-107.52,27.12c-29.02,7.32-51.25,30.68-57.12,60.03l-12.21,61.06"/>
				<path class="st10" d="M668.13,656.83l107.52,27.12c29.02,7.32,51.25,30.68,57.12,60.03l12.18,60.87"/>
			</g>
			<line class="st11" x1="512.73" y1="760.43" x2="441.6" y2="676.54"/>
			<polyline class="st10" points="583.87,676.54 512.73,760.43 512.73,877.02 			"/>
			<line class="st11" x1="409.26" y1="553.66" x2="409.26" y2="618.33"/>
			<line class="st11" x1="616.21" y1="553.66" x2="616.21" y2="618.33"/>
			<path class="st11" d="M396.32,592.46l-38.99,64.37l36.9,84.22c0.83,2.62,4.34,3.08,5.81,0.77l41.54-65.28L396.32,592.46z"/>
			<path class="st11" d="M629.14,592.46l38.99,64.37l-36.9,84.22c-0.83,2.62-4.34,3.08-5.81,0.77l-41.54-65.28L629.14,592.46z"/>
		</g>
		<path class="st12" d="M511.69,605.23c-12.93,0-32.21,0.24-43.86-5.89c-43.17-22.72-85.46-72.78-85.46-102.73
			c0-3.97,0-25.87,0-25.87c-21.9-11.65-30.97-24.16-35.85-47.19c-5.99-28.24-2.95-50.98,22.92-50.98c0,0,0,2.47,0-38.8
			c0-64.24,39.56-130.19,142.25-130.19S654,269.53,654,333.77c0,41.27,0,38.8,0,38.8c25.87,0,28.85,22.74,22.85,50.98
			c-4.89,23.03-13.95,35.54-35.85,47.19c0,0,0,21.89,0,25.87c0,29.94-42.28,80.01-85.46,102.73
			C543.9,605.47,524.63,605.23,511.69,605.23z"/>
		<path class="st13" d="M655,376.9c0-0.24,0-3.63,0-38.8c0-64.24-39.62-130.19-142.31-130.19c-6.96,0-13.58,0.36-19.97,0.94
			c-23.63,64.62-44.67,154.49-44.67,269.72c0,44.07,2.47,82.65,6.53,116.55c4.71,3.13,9.47,6.02,14.26,8.54
			c11.65,6.13,30.92,5.89,43.86,5.89s32.21,0.24,43.86-5.89c43.17-22.72,85.46-72.78,85.46-102.73c0-3.98,0-25.87,0-25.87
			c21.9-11.65,30.97-24.16,35.85-47.19C683.84,399.65,680.86,376.9,655,376.9z"/>
		<path class="st11" d="M654.01,372.58c25.87,0,28.85,22.74,22.85,50.98c-4.89,23.03-13.95,40.84-35.85,52.5c0,0,0,0.57,0,4.54
			c0,47.87-42.28,99.27-85.46,121.98c-11.65,6.13-30.92,5.89-43.86,5.89c-12.93,0-32.21,0.24-43.86-5.89
			c-43.17-22.72-85.46-61.19-85.46-121.98c0-3.97,0-4.54,0-4.54c-21.9-11.65-30.97-29.46-35.85-52.5
			c-5.99-28.24-2.95-50.98,22.92-50.98c0,0,0,2.47,0-38.8c0-64.24,39.56-130.19,142.25-130.19S654,269.54,654,333.78"/>
		<path class="st8" d="M445.31,411.78c-9.02,0-16.34,7.31-16.34,16.34c0,9.02,7.31,16.34,16.34,16.34c9.02,0,16.34-7.31,16.34-16.34
			C461.64,419.09,454.33,411.78,445.31,411.78z"/>
		<g>
			<path class="st8" d="M569.47,411.78c-9.02,0-16.34,7.31-16.34,16.34c0,9.02,7.31,16.34,16.34,16.34
				c9.02,0,16.34-7.31,16.34-16.34C585.8,419.09,578.49,411.78,569.47,411.78z"/>
		</g>
		<path class="st12" d="M405.13,317.18l-36.66-13.07c0,0,49.04-11.58,90.58-4.23"/>
		<path class="st14" d="M586.68,312.67c1.01,0.19,24.09-1.12,36.65,12.74c12.55,13.86,19.36,38.71,19.36,38.71l1.9-68.68
			l-67.63-0.58L586.68,312.67z"/>
		<g>
			<path class="st14" d="M560.42,312.52c-21.05-26.28-73.58-33.9-101.06-38.32c3.23,17.78,32.19,15.86,46.89,25.87
				c3.89,2.65-0.21,2.39-4.85,1.62c-10.04-1.66-18.9-3.16-35.57-6.47c-37.02-7.35-96.32,7.13-96.32,7.13s77.08,4.37,109.35,11.31
				c22.82,4.91,48.09,7.35,60.93,8.36c5.3,0.42,10.39,2.11,14.87,4.97c9.32,5.96,28.94,17,59.22,26.81l-10.42-18
				C590.48,329.13,568.71,322.87,560.42,312.52z"/>
		</g>
		<path class="st8" d="M642.74,193.45c-37.81-26.78-66.34-26.07-123.53-23.12c15.48-9.71,40.91-16.08,58.09-19.53
			c3.56-0.71,3.39-5.84-0.19-6.43c-213.28-35.33-208.64,68.17-208.64,68.17c-28.53,12-36.89,27.91-36.89,84.89
			c0,48.48,18.43,64.07,45.68,103.02c1.8,2.58,5.87,1.29,5.87-1.86v-34.92c0-23.91,10.98-37.24,17.43-43.02
			c0.86-0.77,1.25-1.93,1.03-3.06s-1.02-2.06-2.1-2.45c-4.1-1.46-10.56-3.77-19.83-7.07c-1.4-0.5-2.28-1.88-2.15-3.35
			c0.13-1.48,1.24-2.68,2.7-2.93c17.04-2.94,49.78-7.07,78.86-1.93c25.35,4.49,43.84,6.56,55.55,8.44c0.93,0.15,1.84-0.35,2.22-1.21
			c0.38-0.86,0.13-1.87-0.6-2.45c-14.26-11.37-31.95-18.3-59.46-31.17c30.84,4.42,78.94,15.26,105.35,41.4
			c12.07,11.94,29.47,20.75,47.48,28.38c0.84,0.36,1.81,0.08,2.34-0.66s0.47-1.76-0.15-2.43c-6.82-7.48-18.08-20.44-27.18-33.81
			c62.29,7.56,55.91,16.9,55.24,92.18c-0.03,3.14,4.02,4.5,5.85,1.94c27.22-38.14,48.08-47.45,48.08-95.84
			C693.75,278.51,698.35,232.84,642.74,193.45z"/>
		<path class="st10" d="M844.95,805.4C743.87,851.4,631,877,512.73,877c-117.43,0-231.05-26.12-331.63-71.55"/>
		<path class="st8" d="M659.41,457.9c-4.85,4.63-10.8,8.78-18.34,12.81v-26.46c0-3.67-5.14-4.5-6.3-1.02l-16.76,50.28
			c-1.82,5.46-5.41,10.15-10.19,13.34l-18.65,12.43c-0.86-16.75-12.37-31.23-28.75-35.57c-19.65-5.19-36.04-7.83-48.69-7.83
			c-12.65,0-29.03,2.63-48.69,7.83c-16.38,4.34-27.89,18.81-28.75,35.57l-18.65-12.43c-4.79-3.19-8.37-7.89-10.19-13.34
			l-16.76-50.28c-1.16-3.48-6.3-2.65-6.3,1.02v26.5c-7.58-4.03-13.54-8.2-18.41-12.84c-4.61,4.67-7.46,11.08-7.46,18.15v55.61
			c0,60.6,34.33,110.71,99.28,144.88c16.88,8.88,38.65,8.91,54.5,8.86h2.79c0.55,0,1.1,0,1.66,0c15.71,0,36.54-0.28,52.84-8.86
			c48.13-25.33,99.28-84.71,99.28-144.88v-55.61C666.88,468.98,664.02,462.57,659.41,457.9z M459.99,521.24
			c0-5.86,3.97-11.02,9.66-12.52c17.25-4.56,31.81-6.97,42.08-6.97c10.28,0,24.83,2.41,42.08,6.97c5.69,1.5,9.66,6.66,9.66,12.52
			v19.48c0,7.14-5.79,12.93-12.93,12.93h-7.76c-2.72,0-4.95-2.1-5.16-4.76c-0.35-4.41-3.14-8.17-7.56-8.17H493.4
			c-4.42,0-7.21,3.77-7.56,8.17c-0.21,2.67-2.44,4.76-5.16,4.76h-7.76c-7.14,0-12.93-5.79-12.93-12.93V521.24z"/>
	</g>
</g>
<g>
	<g>
		<rect x="411.29" y="522.28" class="st3" width="203.4" height="240.39"/>
		<path class="st4" d="M512.99,864.37c116.51,0,227.01-25.51,326.51-70.92l-11.81-59.07c-5.85-29.24-28.19-52.39-57.21-59.26
			l-104.76-27.15L627.4,584.7l-41.28,87.68l-72.98,77.64l-73.27-73.55l-41.28-87.68l-38.32,63.26L255.5,679.21
			c-29.01,6.87-51.36,30.03-57.2,59.26l-11.06,55.32C286.54,838.99,396.77,864.37,512.99,864.37z"/>
		<g>
			<rect x="246.03" y="762.67" class="st5" width="50.85" height="50.85"/>
			<rect x="347.73" y="762.67" class="st5" width="50.85" height="50.85"/>
			<rect x="627.4" y="762.67" class="st5" width="50.85" height="50.85"/>
			<rect x="449.43" y="762.67" class="st5" width="127.12" height="50.85"/>
			<rect x="729.1" y="762.67" class="st5" width="50.85" height="50.85"/>
			<polygon class="st6" points="347.73,655.3 296.88,668.48 296.88,711.83 347.73,711.83 			"/>
			<path class="st6" d="M296.88,834.03c1.17,0.33,2.35,0.62,3.52,0.95c-1.18-0.33-2.34-0.73-3.52-1.07V834.03z"/>
			<rect x="296.88" y="762.67" class="st6" width="50.85" height="50.85"/>
			<path class="st6" d="M347.73,846.79v-0.22c-3-0.65-6.03-1.2-9.01-1.89C341.73,845.37,344.7,846.14,347.73,846.79z"/>
			<path class="st6" d="M331.74,843.06c-9.33-2.22-18.6-4.59-27.8-7.14C313.14,838.47,322.41,840.84,331.74,843.06z"/>
			<path class="st6" d="M246.03,682.19c-15.25,5.79-28.09,16.24-36.84,29.63h36.84V682.19z"/>
			<path class="st6" d="M246.03,817.46v-0.12c-1.48-0.54-2.98-1.03-4.46-1.58C243.07,816.32,244.53,816.92,246.03,817.46z"/>
			<path class="st6" d="M246.03,762.67h-50.85v34.48c13.28,5.87,26.81,11.24,40.47,16.36h10.38V762.67z"/>
			<rect x="398.58" y="762.67" class="st6" width="50.85" height="50.85"/>
			<polygon class="st6" points="449.43,686.07 443.25,679.87 411.29,711.83 449.43,711.83 			"/>
			<rect x="576.55" y="762.67" class="st6" width="50.85" height="50.85"/>
			<polygon class="st6" points="580.85,677.98 576.55,682.56 576.55,711.83 614.69,711.83 			"/>
			<path class="st6" d="M779.95,813.52h10.38c13.65-5.13,27.19-10.5,40.46-16.37v-34.47h-50.85V813.52z"/>
			<path class="st6" d="M779.95,817.47c1.61-0.58,3.18-1.22,4.78-1.81c-1.58,0.58-3.19,1.11-4.78,1.69V817.47z"/>
			<path class="st6" d="M779.95,678.1v33.72h39.17C810.41,696.51,796.69,684.46,779.95,678.1z"/>
			<path class="st6" d="M723.27,835.6c-9.66,2.69-19.41,5.17-29.21,7.5C703.87,840.78,713.61,838.29,723.27,835.6z"/>
			<path class="st6" d="M678.25,846.79c3.04-0.65,6.03-1.42,9.06-2.11c-3,0.69-6.04,1.25-9.06,1.9V846.79z"/>
			<path class="st6" d="M729.1,834.04v-0.14c-1.34,0.38-2.64,0.84-3.98,1.21C726.44,834.74,727.78,834.42,729.1,834.04z"/>
			<polygon class="st6" points="729.1,664.39 678.25,651.21 678.25,711.83 729.1,711.83 			"/>
			<rect x="678.25" y="762.67" class="st6" width="50.85" height="50.85"/>
			<polygon class="st6" points="398.58,762.67 398.58,724.54 411.29,711.83 347.73,711.83 347.73,762.67 			"/>
			<path class="st6" d="M819.11,711.83c3.94,6.93,6.95,14.47,8.57,22.55l3.12,15.58v-38.14H819.11z"/>
			<rect x="246.03" y="711.83" class="st6" width="50.85" height="50.85"/>
			<path class="st6" d="M209.19,711.83h-14.01v42.23l3.12-15.58C200.24,728.79,203.99,719.79,209.19,711.83z"/>
			<polygon class="st6" points="576.55,762.67 576.55,711.83 551.13,711.83 512.99,750.02 474.85,711.83 449.43,711.83 
				449.43,762.67 			"/>
			<rect x="729.1" y="711.83" class="st6" width="50.85" height="50.85"/>
			<polygon class="st6" points="627.4,762.67 678.25,762.67 678.25,711.83 614.69,711.83 627.4,724.54 			"/>
			<rect x="296.88" y="711.83" class="st7" width="50.85" height="50.85"/>
			<path class="st7" d="M246.03,711.83h-36.84c-5.2,7.97-8.96,16.96-10.9,26.65l-3.12,15.58v8.62h50.85V711.83z"/>
			<polygon class="st7" points="398.58,762.67 449.43,762.67 449.43,711.83 411.29,711.83 398.58,724.54 			"/>
			<polygon class="st7" points="627.4,762.67 627.4,724.54 614.69,711.83 576.55,711.83 576.55,762.67 			"/>
			<path class="st7" d="M819.11,711.83h-39.17v50.85h50.85v-12.71l-3.12-15.58C826.06,726.29,823.05,718.76,819.11,711.83z"/>
			<rect x="678.25" y="711.83" class="st7" width="50.85" height="50.85"/>
			<path class="st6" d="M729.1,813.52v20.37c17.21-4.94,34.14-10.51,50.85-16.56v-3.82H729.1z"/>
			<path class="st6" d="M694.06,843.1c-2.25,0.53-4.5,1.06-6.76,1.57C689.56,844.16,691.81,843.64,694.06,843.1z"/>
			<path class="st6" d="M725.12,835.11c-0.61,0.17-1.23,0.32-1.84,0.49C723.88,835.43,724.5,835.28,725.12,835.11z"/>
			<path class="st6" d="M790.75,813.52h-0.42c-1.87,0.7-3.73,1.44-5.61,2.13C786.72,814.92,788.76,814.28,790.75,813.52z"/>
			<path class="st6" d="M338.72,844.69c-2.33-0.53-4.65-1.07-6.98-1.63C334.06,843.61,336.39,844.16,338.72,844.69z"/>
			<path class="st6" d="M235.21,813.52c2.1,0.79,4.25,1.47,6.36,2.25c-1.98-0.73-3.94-1.5-5.92-2.25H235.21z"/>
			<path class="st6" d="M303.94,835.93c-1.18-0.33-2.37-0.62-3.54-0.95C301.58,835.31,302.76,835.6,303.94,835.93z"/>
			<path class="st6" d="M246.03,813.52v3.82c16.71,6.04,33.64,11.62,50.85,16.55v-20.38H246.03z"/>
			<path class="st6" d="M627.4,813.52v42.28c-16.78,2.46-33.74,4.35-50.85,5.73v-48.01H449.43v48.01
				c-17.11-1.38-34.07-3.26-50.85-5.73v-42.29h-50.85v33.05c53.29,11.51,108.51,17.8,165.26,17.8c56.75,0,111.97-6.29,165.26-17.8
				v-33.05H627.4z"/>
			<path class="st7" d="M296.88,813.52v20.38c1.18,0.34,2.34,0.74,3.52,1.07c1.17,0.33,2.36,0.63,3.54,0.95
				c9.2,2.55,18.47,4.91,27.8,7.14c2.32,0.55,4.65,1.1,6.98,1.63c2.99,0.68,6.02,1.24,9.01,1.89v-33.05H296.88z"/>
			<path class="st6" d="M235.65,813.52c1.98,0.74,3.94,1.52,5.92,2.25c1.48,0.55,2.98,1.04,4.46,1.58v-3.82H235.65z"/>
			<path class="st7" d="M398.58,855.81c16.78,2.46,33.74,4.34,50.85,5.73v-48.01h-50.85V855.81z"/>
			<path class="st7" d="M576.55,861.53c17.11-1.38,34.07-3.26,50.85-5.73v-42.28h-50.85V861.53z"/>
			<path class="st6" d="M779.95,817.34c1.59-0.57,3.2-1.1,4.78-1.69c1.88-0.69,3.73-1.43,5.61-2.13h-10.38V817.34z"/>
			<path class="st7" d="M678.25,813.52v33.05c3.01-0.65,6.06-1.21,9.06-1.9c2.26-0.51,4.51-1.04,6.76-1.57
				c9.8-2.33,19.55-4.81,29.21-7.5c0.61-0.17,1.23-0.32,1.84-0.49c1.34-0.38,2.65-0.83,3.98-1.21v-20.37H678.25z"/>
		</g>
		<circle class="st8" cx="551.08" cy="788.1" r="9.53"/>
		<g>
			<path class="st15" d="M614.69,737.23l-0.01,0.02C614.67,737.35,614.68,737.31,614.69,737.23z"/>
		</g>
		<g>
			<path class="st8" d="M186.46,806.34c-0.83,0-1.66-0.08-2.51-0.25c-6.88-1.38-11.35-8.08-9.97-14.96l12-60.01
				c6.7-33.47,32.4-60.48,65.49-68.83l105.67-26.65c6.8-1.69,13.72,2.41,15.44,9.22c1.71,6.81-2.41,13.72-9.22,15.44L257.7,686.95
				c-23.64,5.96-42,25.26-46.78,49.17l-12,60.01C197.7,802.17,192.39,806.34,186.46,806.34z"/>
			<path class="st8" d="M839.48,806.16c-5.93,0-11.24-4.18-12.45-10.22l-11.97-59.83c-4.78-23.91-23.14-43.21-46.78-49.17
				L662.61,660.3c-6.81-1.72-10.93-8.63-9.22-15.44c1.71-6.8,8.66-10.92,15.44-9.22l105.67,26.65c33.1,8.35,58.8,35.37,65.49,68.84
				l11.97,59.82c1.38,6.88-3.08,13.58-9.97,14.96C841.15,806.08,840.31,806.16,839.48,806.16z"/>
		</g>
		
			<rect x="465.31" y="654.51" transform="matrix(0.7627 -0.6468 0.6468 0.7627 -344.8298 477.3184)" class="st8" width="25.43" height="108.1"/>
		<path class="st8" d="M512.99,877.08c-7.02,0-12.71-5.69-12.71-12.71V749.78c0-3.01,1.07-5.93,3.02-8.22l69.92-82.45
			c4.53-5.34,12.55-6.01,17.92-1.47c5.35,4.54,6.01,12.56,1.47,17.92l-66.9,78.89v109.92C525.7,871.39,520.01,877.08,512.99,877.08z
			"/>
		<rect x="398.58" y="546.57" class="st8" width="25.42" height="63.56"/>
		<rect x="601.97" y="546.57" class="st8" width="25.42" height="63.56"/>
		<path class="st8" d="M399.54,745.68c-0.69,0-1.38-0.04-2.07-0.14c-5.78-0.77-10.69-4.68-12.75-10.08l-36.11-82.39
			c-1.66-3.79-1.37-8.15,0.77-11.69l38.32-63.26c2.36-3.9,6.51-6.37,11.2-6.12c4.56,0.11,8.71,2.66,10.87,6.68l44.49,82.63
			c2.18,4.05,2,8.97-0.47,12.85l-40.82,64.16C410.03,742.93,404.92,745.68,399.54,745.68z M374.55,648.91l26.59,60.65l27.21-42.76
			l-30.41-56.49L374.55,648.91z"/>
		<path class="st8" d="M626.44,745.68c-5.37,0-10.48-2.75-13.42-7.35l-40.84-64.16c-2.47-3.89-2.65-8.8-0.47-12.86l44.49-82.63
			c2.16-4.02,6.31-6.57,10.87-6.68c4.52-0.2,8.83,2.22,11.2,6.12l38.32,63.26c2.14,3.54,2.43,7.9,0.77,11.69l-36.1,82.39
			c-2.07,5.4-6.99,9.32-12.77,10.07C627.81,745.63,627.12,745.68,626.44,745.68z M597.63,666.8l27.22,42.77l26.58-60.66l-23.38-38.6
			L597.63,666.8z"/>
	</g>
	<path class="st12" d="M511.97,597.25c-12.71,0-31.66,0.23-43.1-5.79c-42.43-22.33-83.99-71.53-83.99-100.96c0-3.91,0-25.42,0-25.42
		c-21.52-11.45-30.43-23.74-35.24-46.38c-5.89-27.75-2.9-50.1,22.53-50.1c0,0,0,2.43,0-38.14c0-63.13,38.88-127.95,139.8-127.95
		c100.92,0,139.87,64.82,139.87,127.95c0,40.56,0,38.14,0,38.14c25.42,0,28.35,22.35,22.46,50.1c-4.8,22.64-13.72,34.93-35.24,46.38
		c0,0,0,21.52,0,25.42c0,29.43-41.56,78.64-83.99,100.96C543.62,597.48,524.68,597.25,511.97,597.25z"/>
	<path class="st13" d="M652.81,372.84c0-0.23,0-3.57,0-38.14c0-63.13-38.94-127.95-139.87-127.95c-6.84,0-13.35,0.35-19.62,0.93
		c-23.22,63.51-43.9,151.84-43.9,265.08c0,43.31,2.43,81.23,6.41,114.55c4.63,3.07,9.31,5.92,14.01,8.4
		c11.45,6.02,30.39,5.79,43.1,5.79c12.71,0,31.66,0.23,43.1-5.79c42.43-22.33,83.99-71.53,83.99-100.96c0-3.91,0-25.42,0-25.42
		c21.52-11.45,30.43-23.74,35.24-46.38C681.16,395.2,678.23,372.84,652.81,372.84z"/>
	<path class="st8" d="M514.92,613.15c-0.53,0-1.06,0-1.57,0h-2.76c-14.28-0.01-33.83,0.02-47.65-7.26
		c-58.37-30.71-89.7-75.04-90.76-128.35c-23.57-15.46-31.1-37.91-34.98-56.21c-5.18-24.41-3.28-41.75,5.83-52.99
		c3.17-3.92,8.34-8.36,16.41-10.74v-27.14c0-64.89,39.94-140.67,152.52-140.67c112.62,0,152.58,75.78,152.58,140.67h-25.42
		c0-55.71-33.4-115.24-127.15-115.24c-93.7,0-127.09,59.53-127.09,115.24v38.16c0,7.26-6.08,13.15-13.42,12.69
		c-6.33,0.16-8.08,2.3-8.66,3.03c-1.78,2.19-5.4,9.67-0.73,31.71c4.71,22.18,13.05,34.64,28.78,43.02
		c4.15,2.21,6.74,6.52,6.74,11.22v4.46c0,56.22,41.98,90.1,77.2,108.64c8.26,4.34,25.1,4.43,35.78,4.33h2.79
		c10.83,0.11,27.54,0.02,35.78-4.33c37.95-19.97,77.2-66.06,77.2-108.64v-4.46c0-4.7,2.59-9.01,6.74-11.22
		c15.73-8.37,24.07-20.83,28.78-43.02c4.68-22.09,1.07-29.55-0.7-31.73c-0.6-0.75-2.44-3.02-9.33-3.02v-25.42
		c15.72,0,24.49,6.76,29.09,12.43c9.09,11.23,11,28.57,5.81,53.02c-3.89,18.31-11.42,40.76-35,56.22
		c-1.56,53.2-47.48,105.58-90.74,128.33C547.67,612.9,529.03,613.15,514.92,613.15z"/>
	<path class="st8" d="M446.72,407.12c-8.87,0-16.06,7.19-16.06,16.06c0,8.87,7.19,16.06,16.06,16.06c8.87,0,16.06-7.19,16.06-16.06
		C462.78,414.31,455.59,407.12,446.72,407.12z"/>
	<g>
		<path class="st8" d="M568.75,407.12c-8.87,0-16.06,7.19-16.06,16.06c0,8.87,7.19,16.06,16.06,16.06c8.87,0,16.06-7.19,16.06-16.06
			C584.8,414.31,577.61,407.12,568.75,407.12z"/>
	</g>
	<path class="st12" d="M407.23,314.14L371.2,301.3c0,0,48.19-11.38,89.02-4.16"/>
	<path class="st16" d="M585.67,309.71c0.99,0.18,23.68-1.1,36.02,12.52c12.34,13.63,19.03,38.04,19.03,38.04l1.87-67.5l-66.46-0.57
		L585.67,309.71z"/>
	<g>
		<path class="st16" d="M559.86,309.57c-20.69-25.83-72.31-33.32-99.32-37.66c3.18,17.48,31.63,15.59,46.08,25.42
			c3.82,2.6-0.2,2.34-4.77,1.59c-9.87-1.63-18.57-3.1-34.96-6.36c-36.38-7.23-94.67,7-94.67,7s75.76,4.3,107.47,11.12
			c22.43,4.83,47.26,7.23,59.88,8.22c5.21,0.41,10.21,2.07,14.61,4.89c9.16,5.86,28.44,16.71,58.2,26.35l-10.24-17.69
			C589.4,325.89,568,319.73,559.86,309.57z"/>
	</g>
	<path class="st8" d="M640.76,192.54c-37.16-26.32-65.2-25.62-121.41-22.72c15.22-9.55,40.2-15.8,57.09-19.19
		c3.5-0.7,3.33-5.74-0.19-6.32c-209.61-34.72-205.06,67-205.06,67c-28.04,11.79-36.25,27.43-36.25,83.43
		c0,47.65,18.12,62.97,44.9,101.25c1.77,2.53,5.77,1.27,5.77-1.82v-34.32c0-23.5,10.79-36.61,17.13-42.28
		c0.84-0.75,1.22-1.9,1.01-3.01c-0.22-1.11-1-2.02-2.07-2.4c-4.03-1.44-10.38-3.7-19.49-6.95c-1.37-0.49-2.24-1.84-2.12-3.3
		c0.13-1.45,1.22-2.64,2.65-2.88c16.74-2.89,48.93-6.95,77.5-1.89c24.92,4.41,43.09,6.44,54.59,8.3c0.91,0.15,1.81-0.34,2.18-1.18
		c0.37-0.85,0.13-1.84-0.59-2.41c-14.01-11.18-31.4-17.98-58.44-30.63c30.31,4.34,77.58,15,103.54,40.69
		c11.86,11.74,28.97,20.39,46.66,27.9c0.82,0.35,1.78,0.08,2.3-0.65c0.52-0.73,0.46-1.73-0.14-2.39
		c-6.7-7.35-17.77-20.08-26.72-33.23c61.22,7.43,54.95,16.61,54.29,90.6c-0.03,3.09,3.95,4.43,5.75,1.91
		c26.76-37.49,47.25-46.64,47.25-94.2C690.89,276.14,695.42,231.25,640.76,192.54z"/>
	<path class="st8" d="M512.99,877.07c-113.16,0-227.67-24.7-331.17-71.45c-6.4-2.89-9.24-10.42-6.35-16.82
		c2.89-6.4,10.41-9.25,16.82-6.35c100.23,45.26,211.12,69.19,320.7,69.19c112.23,0,220.31-23.29,321.25-69.23
		c6.37-2.9,13.92-0.09,16.83,6.31c2.91,6.39,0.09,13.93-6.31,16.83C740.51,853.01,628.88,877.07,512.99,877.07z"/>
	<path class="st8" d="M657.15,452.45c-4.77,4.55-10.61,8.63-18.03,12.59v-26.01c0-3.61-5.05-4.43-6.19-1.01l-16.47,49.42
		c-1.79,5.36-5.31,9.98-10.02,13.12l-18.33,12.22c-0.84-16.46-12.15-30.7-28.26-34.96c-19.32-5.1-35.42-7.69-47.85-7.69
		c-12.43,0-28.53,2.59-47.86,7.69c-16.1,4.26-27.41,18.49-28.25,34.96l-18.33-12.22c-4.7-3.14-8.23-7.75-10.02-13.12l-16.47-49.42
		c-1.14-3.42-6.19-2.6-6.19,1.01v26.05c-7.45-3.96-13.31-8.06-18.09-12.62c-4.53,4.59-7.34,10.89-7.34,17.84v54.65
		c0,59.56,33.74,108.81,97.58,142.39c16.59,8.73,37.98,8.75,53.57,8.71h2.74c0.54,0,1.08,0,1.63,0c15.44,0,35.91-0.28,51.94-8.71
		c47.31-24.89,97.58-83.26,97.58-142.39v-54.65C664.49,463.34,661.68,457.04,657.15,452.45z M461.15,514.7
		c0-5.76,3.91-10.83,9.49-12.3c16.96-4.48,31.26-6.85,41.36-6.85c10.1,0,24.4,2.36,41.35,6.85c5.59,1.48,9.5,6.54,9.5,12.31v19.15
		c0,7.02-5.69,12.71-12.71,12.71h-7.63c-2.67,0-4.86-2.06-5.07-4.68c-0.34-4.33-3.08-8.03-7.43-8.03h-36.03
		c-4.34,0-7.09,3.7-7.43,8.03c-0.21,2.62-2.4,4.68-5.07,4.68h-7.63c-7.02,0-12.71-5.69-12.71-12.71V514.7z"/>
</g>
</svg>
